<svg width="20" height="20" viewBox="0 0 20 20" fill="none" xmlns="http://www.w3.org/2000/svg">
<path d="M4.99984 1.6665H14.9998C15.2209 1.6665 15.4328 1.7543 15.5891 1.91058C15.7454 2.06686 15.8332 2.27882 15.8332 2.49984V18.4523C15.8333 18.5268 15.8134 18.6 15.7756 18.6642C15.7378 18.7284 15.6835 18.7813 15.6183 18.8174C15.5531 18.8535 15.4794 18.8714 15.405 18.8694C15.3305 18.8673 15.2579 18.8453 15.1948 18.8057L9.99984 15.0248L4.80484 18.8048C4.74181 18.8444 4.66933 18.8664 4.59492 18.8685C4.52052 18.8706 4.44691 18.8528 4.38175 18.8168C4.31659 18.7808 4.26226 18.728 4.22441 18.6639C4.18655 18.5998 4.16656 18.5268 4.1665 18.4523V2.49984C4.1665 2.27882 4.2543 2.06686 4.41058 1.91058C4.56686 1.7543 4.77882 1.6665 4.99984 1.6665ZM14.1665 3.33317H5.83317V16.1932L9.99984 13.059L14.1665 16.1932V3.33317Z" fill="#06070D"/>
</svg>
