<svg width="16" height="11" viewBox="0 0 16 11" fill="none" xmlns="http://www.w3.org/2000/svg">
<g clip-path="url(#clip0)">
<path d="M8.03773 11.0002C4.70154 10.8718 2.13493 9.39519 0.313729 6.46756C-0.105309 5.79558 -0.0972508 5.20064 0.30567 4.51153C3.83929 -1.55345 12.2966 -1.49353 15.7416 4.63138C16.072 5.21776 16.0921 5.74422 15.7456 6.32632C13.9446 9.35239 11.3377 10.8633 8.03773 11.0002ZM8.01758 9.77184C10.8743 9.652 13.1347 8.35511 14.7222 5.76562C14.8471 5.56445 14.8592 5.41464 14.7343 5.19208C11.7647 -0.111036 4.24624 -0.123876 1.25656 5.17068C1.1236 5.40608 1.13166 5.56445 1.26865 5.78274C2.85616 8.34655 5.10446 9.64772 8.01758 9.77184ZM10.8461 5.43605C10.8541 7.13527 9.58897 8.4878 7.98535 8.4878C6.40187 8.48352 5.14072 7.15239 5.13267 5.47029C5.12461 3.76678 6.38978 2.41854 7.99341 2.41854C9.58092 2.42282 10.838 3.75394 10.8461 5.43605ZM6.25279 5.45317C6.25279 6.44188 7.07475 7.30647 8.00146 7.29791C8.92415 7.28935 9.70985 6.459 9.72597 5.47457C9.74208 4.49013 8.93624 3.61698 8.00146 3.60842C7.07475 3.59986 6.25279 4.46445 6.25279 5.45317Z" fill="#828285"/>
</g>
<defs>
<clipPath id="clip0">
<rect width="16" height="11" fill="white"/>
</clipPath>
</defs>
</svg>
