<svg width="24" height="32" viewBox="0 0 24 32" fill="none" xmlns="http://www.w3.org/2000/svg">
<g clip-path="url(#clip0)">
<path d="M11.7573 8.27799C9.00056 8.31863 6.96002 9.60568 5.59515 11.963C4.68975 13.5346 3.56813 14.8893 2.09515 15.9461C1.81137 16.1493 1.50056 16.339 1.17624 16.488C0.743803 16.6912 0.365425 16.5557 0.122181 16.1628C-0.107548 15.8106 -0.0264674 15.3771 0.351911 15.0926C0.676235 14.8487 1.02759 14.659 1.35191 14.4152C2.5411 13.5346 3.41948 12.3965 4.13569 11.123C4.91948 9.72761 6.00056 8.61668 7.36543 7.77672C8.2438 7.23481 9.17624 6.89611 10.1627 6.73354C12.8384 6.31355 15.3114 6.82837 17.5276 8.41347C19.7843 10.0392 20.9195 12.2611 20.9465 15.0519C20.9465 15.6209 20.8519 16.1899 20.7438 16.7454C20.5276 17.8157 20.3384 18.8995 20.406 19.9969C20.4735 21.0942 20.7438 22.1103 21.5006 22.9368C21.7168 23.1806 21.987 23.3838 22.2438 23.587C22.6897 23.9664 22.7979 24.3728 22.5411 24.7522C22.2573 25.1721 21.7708 25.2534 21.2843 24.9554C20.2033 24.278 19.5276 23.3025 19.1357 22.1103C18.7843 21.0401 18.6762 19.9427 18.7573 18.8047C18.8384 17.8292 19.0681 16.8809 19.1898 15.919C19.5006 13.521 18.7438 11.5024 16.8384 9.97147C15.3654 8.8199 13.6762 8.26444 11.7573 8.27799ZM13.987 13.8191C13.2573 13.3991 12.46 13.223 11.6087 13.25C10.1222 13.3042 9.0411 13.9681 8.3384 15.2822C8.06813 15.7835 7.81137 16.2983 7.58164 16.8131C7.01407 18.0866 6.1357 19.1027 5.0411 19.9291C3.66272 20.9723 2.2438 21.9884 0.851911 23.018C0.662722 23.1535 0.473533 23.3025 0.31137 23.4787C0.0681272 23.7496 0.0681272 24.1832 0.27083 24.4677C0.514073 24.7928 0.905965 24.9012 1.27083 24.7251C1.41948 24.6573 1.56813 24.5625 1.68975 24.4677C3.06813 23.4516 4.44651 22.449 5.82488 21.4329C7.20326 20.4169 8.31137 19.1705 9.0411 17.5854C9.2438 17.1247 9.50056 16.6912 9.70326 16.2441C10.3519 14.7539 12.1357 14.4829 13.4195 15.4854C13.8384 15.8106 14.0546 16.2441 14.1087 16.7725C14.2033 17.7208 14.0546 18.6285 13.46 19.4143C12.5952 20.5523 11.7303 21.7174 10.8114 22.8284C9.06813 24.9283 7.00056 26.6624 4.60867 28.0036C4.44651 28.0985 4.27083 28.1933 4.13569 28.3152C3.86542 28.5456 3.79786 28.9249 3.93299 29.2229C4.06813 29.5345 4.37894 29.7513 4.73029 29.7107C4.96002 29.6836 5.18975 29.6023 5.39245 29.4939C7.31137 28.4236 9.05462 27.1095 10.6087 25.5515C12.2843 23.8851 13.7303 22.029 15.0411 20.0646C15.6087 19.2246 15.7979 18.2898 15.8519 17.2873C15.7979 15.8377 15.3249 14.5913 13.987 13.8191ZM15.8925 11.123C14.6492 10.1611 13.2438 9.71406 11.7033 9.74116C10.0411 9.7818 8.64921 10.4863 7.48705 11.692C6.51407 12.6946 5.78434 13.8597 5.12218 15.0655C4.46002 16.2577 3.56813 17.2331 2.50056 18.046C1.85191 18.5337 1.16272 18.9537 0.50056 19.4143C0.0951542 19.6988 0.0140731 20.173 0.243803 20.5523C0.473533 20.9181 0.932992 21.0536 1.35191 20.8233C1.78434 20.5794 2.21678 20.322 2.62218 20.0375C4.3384 18.8724 5.75732 17.4363 6.75732 15.5938C7.20326 14.781 7.73029 14.0223 8.28434 13.2771C8.81137 12.5591 9.50056 12.0036 10.3519 11.7056C12.2979 11.0011 14.6492 11.7598 15.8519 13.4804C16.7573 14.781 16.8114 16.2306 16.5952 17.7208C16.4465 18.7234 16.2033 19.7259 16.0681 20.742C15.8114 22.7471 16.2438 24.576 17.6222 26.1205C18.2573 26.8385 19.0546 27.3669 20.0006 27.6243C20.4465 27.7462 20.8789 27.5159 21.0276 27.0959C21.1492 26.7572 20.987 26.3373 20.6222 26.134C20.433 26.0257 20.2303 25.9579 20.0411 25.8631C18.8114 25.2534 18.0816 24.2509 17.7979 22.9097C17.5276 21.6226 17.7303 20.3627 18.0006 19.0892C18.1898 18.2086 18.3114 17.3144 18.3925 16.8402C18.3519 14.2661 17.6087 12.4643 15.8925 11.123ZM10.4195 3.42786C8.51407 3.53625 6.81137 4.21364 5.29786 5.35166C3.60867 6.61161 2.23029 8.18315 1.12218 9.98502C0.987046 10.2018 0.838398 10.4321 0.757316 10.676C0.595154 11.1908 0.973533 11.692 1.52759 11.7191C1.90597 11.7327 2.12218 11.5159 2.32488 11.2179C2.91948 10.3644 3.51407 9.49729 4.16272 8.68442C5.00056 7.64124 6.02759 6.78773 7.18975 6.11034C8.36543 5.4194 9.6357 5.16199 10.987 5.0807C12.4735 4.98586 13.9195 5.13489 15.3249 5.59552C17.2303 6.21872 18.7438 7.42448 19.9735 8.99603C20.3114 9.42956 20.6492 9.86309 21.0141 10.256C21.46 10.7301 22.0681 10.6082 22.3654 10.0528C22.5276 9.74116 22.46 9.45665 22.2438 9.19924C21.7979 8.64378 21.3384 8.10187 20.8925 7.53286C19.7979 6.13743 18.406 5.13489 16.8114 4.38976C15.1897 3.64463 13.4735 3.34658 11.6897 3.42786C11.2708 3.42786 10.8519 3.40077 10.4195 3.42786ZM19.5681 4.10526C19.8114 4.26783 20.0276 4.4575 20.2708 4.59298C20.5952 4.78265 20.9465 4.80974 21.2708 4.57943C21.5952 4.34912 21.6087 4.01042 21.5141 3.67172C21.46 3.48205 21.2979 3.29238 21.1492 3.17045C20.8114 2.91304 20.46 2.66918 20.0952 2.45242C17.0276 0.555721 13.7303 -0.324889 10.1222 0.108642C7.48705 0.420242 5.20326 1.47697 3.18975 3.17045C2.77083 3.5227 2.39245 3.91559 2.02759 4.32202C1.71678 4.67426 1.77083 5.17553 2.10867 5.48713C2.43299 5.79873 2.81137 5.78519 3.18975 5.46004C3.3384 5.33811 3.46002 5.18908 3.59515 5.0536C5.89245 2.84531 8.60867 1.68019 12.2168 1.66664C14.6357 1.69374 17.2168 2.53371 19.5681 4.10526ZM3.60867 27.4346C4.14921 27.0553 4.67624 26.6489 5.20326 26.2289C7.10867 24.7251 8.94651 23.14 10.487 21.2568C11.2168 20.3762 11.8925 19.455 12.3789 18.4118C12.5681 18.0053 12.7438 17.5718 12.8114 17.1383C12.906 16.4744 12.3384 16.0545 11.7168 16.2712C11.4195 16.3796 11.2708 16.6235 11.1762 16.8944C10.7303 18.344 9.8384 19.5091 8.8384 20.6065C6.98705 22.6658 4.86543 24.427 2.63569 26.0663C2.46002 26.1882 2.28434 26.3237 2.16272 26.4863C1.81137 27.0147 2.17624 27.692 2.97353 27.7191C3.12218 27.6785 3.39245 27.5972 3.60867 27.4346ZM23.7979 14.3745C23.7438 13.9816 23.6627 13.5752 23.5681 13.1823C23.46 12.7217 23.3519 12.2611 23.1898 11.814C23.0411 11.4211 22.6087 11.2314 22.2573 11.3398C21.8519 11.4482 21.6357 11.7462 21.6492 12.1798C21.6492 12.3152 21.6762 12.4643 21.7033 12.5998C21.8114 13.0604 21.933 13.521 22.0276 13.9816C22.406 16.0274 22.3925 18.046 21.6897 20.024C21.5952 20.2949 21.4735 20.5523 21.3789 20.8233C21.2303 21.2568 21.4195 21.6768 21.8249 21.8936C22.1627 22.0561 22.5681 21.9478 22.8249 21.5955C22.9465 21.4194 23.0276 21.2162 23.1087 21.0265C23.6762 19.5769 23.9735 18.0731 24.0006 16.5015C23.933 15.797 23.8789 15.079 23.7979 14.3745ZM9.05462 28.4372C8.51407 28.8978 8.01407 29.4126 7.56813 29.9545C7.28434 30.2932 7.40597 30.7674 7.71678 31.0519C8.05462 31.3364 8.43299 31.3229 8.81137 30.9842C8.94651 30.8622 9.05462 30.6861 9.20326 30.5642C9.59516 30.2119 9.98705 29.8055 10.4465 29.521C11.2168 29.0468 11.8384 29.2094 12.3654 29.941C12.6087 30.2932 12.7843 30.6861 12.987 31.0655C13.0952 31.2687 13.1762 31.5125 13.3249 31.6887C13.6897 32.1222 14.2843 32.0815 14.5952 31.6209C14.7979 31.3093 14.7708 30.9706 14.6357 30.659C14.2708 29.7513 13.7979 28.8978 13.0276 28.2475C12.5141 27.8275 11.9465 27.5837 11.3925 27.5701C10.4195 27.5837 9.67624 27.9088 9.05462 28.4372ZM16.6087 30.5371C17.0681 30.7945 17.5546 30.6455 17.7708 30.239C18.0006 29.8191 17.8789 29.3991 17.406 29.0739C17.2303 28.952 17.0411 28.8572 16.8654 28.7352C15.2438 27.5837 14.7168 26.2018 15.2573 24.1154C15.3114 23.8851 15.3789 23.6548 15.406 23.4245C15.433 23.14 15.2979 22.9232 15.0681 22.7606C14.6222 22.449 14.0681 22.6116 13.8384 23.1535C13.5276 23.8851 13.3384 24.6438 13.3654 25.4431C13.4195 27.814 14.6087 29.4262 16.6087 30.5371Z" fill="black"/>
</g>
<defs>
<clipPath id="clip0">
<rect width="24" height="32" fill="white"/>
</clipPath>
</defs>
</svg>
