<svg width="375" height="812" viewBox="0 0 375 812" fill="none" xmlns="http://www.w3.org/2000/svg">
<g clip-path="url(#clip0)">
<rect width="375" height="812" fill="#FDFDFD"/>
<g opacity="0.1">
<path fill-rule="evenodd" clip-rule="evenodd" d="M183.665 786.106C200.795 786.093 217.228 792.914 229.349 805.067C241.471 817.221 248.288 833.711 248.302 850.912L248.302 968.738C248.302 985.952 241.491 1002.46 229.369 1014.63C217.247 1026.81 200.806 1033.65 183.662 1033.65C166.519 1033.65 150.077 1026.81 137.955 1014.63C125.833 1002.46 119.023 985.952 119.023 968.738L119.023 850.911C119.029 842.394 120.707 833.961 123.959 826.095C127.211 818.228 131.974 811.083 137.977 805.065C143.98 799.047 151.104 794.275 158.943 791.022C166.782 787.769 175.183 786.099 183.665 786.106ZM213.047 850.912C213.047 843.087 209.952 835.582 204.442 830.05C198.931 824.517 191.458 821.408 183.665 821.408C175.873 821.408 168.4 824.517 162.889 830.05C157.379 835.582 154.284 843.087 154.284 850.912L154.284 968.738C154.284 976.563 157.379 984.067 162.889 989.6C168.4 995.133 175.873 998.242 183.665 998.242C191.458 998.242 198.931 995.133 204.442 989.6C209.952 984.067 213.047 976.563 213.047 968.738L213.047 850.912Z" fill="#EDEDEF"/>
<path d="M405.707 870.682C405.709 864.847 403.987 859.141 400.759 854.289C397.531 849.436 392.943 845.653 387.574 843.419C382.206 841.185 376.298 840.6 370.598 841.738C364.898 842.875 359.662 845.685 355.552 849.811C351.443 853.937 348.644 859.194 347.509 864.917C346.375 870.64 346.957 876.572 349.181 881.964C351.404 887.355 355.17 891.963 360.002 895.205C364.834 898.448 370.515 900.178 376.326 900.178C381 900.178 385.482 902.042 388.787 905.361C392.092 908.68 393.949 913.181 393.949 917.874C393.949 922.567 392.092 927.069 388.787 930.387C385.482 933.706 381 935.57 376.326 935.57C363.546 935.566 351.055 931.758 340.43 924.626C329.806 917.494 321.526 907.359 316.638 895.503C311.75 883.646 310.472 870.6 312.967 858.014C315.462 845.429 321.618 833.869 330.656 824.796C339.693 815.723 351.208 809.544 363.742 807.042C376.276 804.539 389.268 805.825 401.075 810.737C412.881 815.648 422.973 823.964 430.072 834.634C437.172 845.304 440.962 857.849 440.962 870.682C440.962 875.377 439.105 879.88 435.799 883.199C432.493 886.519 428.009 888.384 423.333 888.384C418.657 888.384 414.173 886.519 410.867 883.199C407.561 879.88 405.703 875.377 405.703 870.682L405.707 870.682Z" fill="#E5E0D5"/>
<path d="M187.441 786.102C208.917 786.105 229.515 777.541 244.703 762.295C259.891 747.048 268.425 726.368 268.429 704.803C268.429 700.114 270.284 695.616 273.585 692.301C276.887 688.986 281.365 687.123 286.035 687.123C290.704 687.123 295.182 688.986 298.484 692.301C301.786 695.616 303.64 700.114 303.64 704.803C303.638 720.123 300.631 735.293 294.79 749.446C288.95 763.6 280.39 776.46 269.6 787.291C258.809 798.123 246 806.715 231.903 812.576C217.807 818.436 202.698 821.451 187.441 821.449C182.773 821.449 178.296 819.588 174.995 816.273C171.694 812.959 169.84 808.463 169.84 803.776C169.84 799.088 171.694 794.593 174.995 791.278C178.296 787.964 182.773 786.102 187.441 786.102Z" fill="#E5E0D5"/>
<path fill-rule="evenodd" clip-rule="evenodd" d="M103.936 809.327C92.8398 809.326 81.8519 811.519 71.5995 815.781C61.3471 820.044 52.0312 826.292 44.1838 834.17C36.3364 842.047 30.111 851.4 25.8632 861.694C21.6155 871.987 19.4285 883.021 19.4271 894.163C19.4271 898.852 17.5723 903.348 14.2705 906.664C10.9688 909.979 6.49049 911.841 1.82111 911.841C-2.84826 911.841 -7.32633 909.979 -10.6281 906.664C-13.9298 903.348 -15.7847 898.852 -15.7847 894.163C-15.7806 862.283 -3.1648 831.712 19.2872 809.172C41.7392 786.633 72.1882 773.973 103.936 773.977C106.278 773.929 108.606 774.351 110.783 775.217C112.961 776.084 114.944 777.378 116.617 779.024C118.29 780.67 119.619 782.635 120.527 784.803C121.434 786.971 121.902 789.299 121.902 791.651C121.902 794.003 121.434 796.332 120.527 798.5C119.619 800.669 118.29 802.633 116.617 804.279C114.944 805.925 112.961 807.219 110.783 808.086C108.606 808.953 106.278 809.375 103.936 809.327L103.936 809.327Z" fill="white"/>
<path fill-rule="evenodd" clip-rule="evenodd" d="M205.046 803.775C205.047 807.272 204.016 810.69 202.082 813.598C200.148 816.506 197.398 818.773 194.181 820.111C190.964 821.45 187.424 821.801 184.009 821.119C180.593 820.438 177.456 818.754 174.993 816.282C172.53 813.81 170.853 810.66 170.173 807.23C169.493 803.801 169.842 800.246 171.174 797.016C172.507 793.785 174.763 791.024 177.659 789.081C180.554 787.138 183.958 786.101 187.44 786.101C192.109 786.101 196.586 787.963 199.888 791.277C203.189 794.592 205.045 799.087 205.046 803.775Z" fill="black"/>
<path fill-rule="evenodd" clip-rule="evenodd" d="M181.654 676.065C175.846 676.067 170.168 677.798 165.339 681.04C160.51 684.282 156.747 688.889 154.526 694.279C152.304 699.668 151.724 705.598 152.859 711.319C153.993 717.039 156.791 722.293 160.9 726.417C165.008 730.541 170.241 733.348 175.938 734.486C181.636 735.623 187.541 735.038 192.907 732.806C198.274 730.573 202.86 726.792 206.087 721.943C209.314 717.093 211.036 711.391 211.036 705.558C211.036 701.684 210.275 697.849 208.798 694.27C207.322 690.691 205.157 687.44 202.429 684.701C199.7 681.962 196.461 679.79 192.897 678.308C189.332 676.827 185.512 676.064 181.654 676.065ZM117.018 705.558C117.015 692.721 120.803 680.171 127.903 669.495C135.004 658.82 145.098 650.498 156.908 645.583C168.719 640.669 181.715 639.381 194.255 641.884C206.794 644.386 218.312 650.566 227.353 659.643C236.395 668.719 242.552 680.284 245.047 692.874C247.543 705.465 246.264 718.516 241.372 730.377C236.48 742.237 228.196 752.375 217.566 759.507C206.936 766.639 194.439 770.447 181.654 770.447C164.513 770.449 148.074 763.614 135.951 751.445C123.829 739.276 117.018 722.77 117.015 705.558L117.018 705.558Z" fill="white"/>
<path fill-rule="evenodd" clip-rule="evenodd" d="M-170.718 626.534C-168.405 626.532 -166.114 626.074 -163.978 625.184C-161.841 624.294 -159.9 622.99 -158.265 621.346C-156.63 619.703 -155.333 617.752 -154.449 615.605C-153.565 613.458 -153.111 611.157 -153.112 608.834C-153.117 601.016 -150.027 593.516 -144.525 587.984C-139.022 582.453 -131.556 579.343 -123.769 579.339L-6.39653 579.339C1.38988 579.343 8.85553 582.453 14.3584 587.984C19.8612 593.516 22.9505 601.016 22.9466 608.834C22.9466 613.523 24.8015 618.021 28.1032 621.336C31.405 624.651 35.8832 626.514 40.5526 626.514C45.222 626.514 49.7001 624.651 53.0018 621.336C56.3036 618.021 58.1584 613.523 58.1584 608.834C58.17 599.996 56.3795 591.25 52.8972 583.134C49.4148 575.017 44.3143 567.702 37.91 561.639C44.3144 555.576 49.4148 548.259 52.8972 540.141C56.3795 532.023 58.17 523.275 58.1584 514.436L58.1584 460.16C58.1635 451.642 56.4976 443.207 53.2562 435.336C50.0147 427.465 45.261 420.311 39.2665 414.285C33.272 408.259 26.1541 403.477 18.3192 400.213C10.4843 396.949 2.08595 395.266 -6.39652 395.261C-11.0713 395.261 -15.5547 397.126 -18.8603 400.446C-22.1658 403.765 -24.0228 408.267 -24.0228 412.961C-24.0228 417.655 -22.1658 422.157 -18.8603 425.476C-15.5547 428.795 -11.0713 430.66 -6.39652 430.66C1.39039 430.665 8.85648 433.775 14.3594 439.307C19.8623 444.84 22.9512 452.341 22.9466 460.16L22.9466 514.436C22.9512 522.256 19.8623 529.756 14.3594 535.289C8.85648 540.821 1.39038 543.931 -6.39653 543.936L-123.769 543.936C-140.9 543.947 -157.325 550.791 -169.432 562.961C-181.538 575.132 -188.334 591.633 -188.324 608.834C-188.326 611.157 -187.871 613.458 -186.987 615.605C-186.103 617.752 -184.807 619.703 -183.172 621.346C-181.537 622.99 -179.596 624.294 -177.459 625.184C-175.322 626.074 -173.032 626.532 -170.718 626.534Z" fill="#EDEDEF"/>
<path d="M40.6663 591.179C35.9933 591.181 31.5124 593.047 28.2093 596.366C24.9062 599.685 23.0514 604.186 23.0529 608.878C23.0539 612.75 22.2953 616.585 20.8204 620.163C19.3455 623.741 17.1833 626.992 14.4571 629.73C11.7309 632.469 8.49399 634.642 4.93152 636.125C1.36905 637.607 -2.44926 638.371 -6.30558 638.371L-123.739 638.371C-127.595 638.37 -131.413 637.606 -134.975 636.124C-138.538 634.641 -141.774 632.468 -144.5 629.729C-147.226 626.991 -149.389 623.74 -150.863 620.162C-152.338 616.584 -153.097 612.75 -153.096 608.878C-153.096 604.187 -154.952 599.688 -158.255 596.371C-161.559 593.054 -166.039 591.19 -170.711 591.19C-175.383 591.19 -179.863 593.054 -183.167 596.371C-186.47 599.688 -188.326 604.187 -188.326 608.878C-188.33 626.082 -181.527 642.582 -169.415 654.75C-157.302 666.918 -140.873 673.756 -123.74 673.76L-6.30739 673.76C-4.86195 673.76 -3.42839 673.714 -2.00688 673.623C2.48915 688.346 11.5701 701.232 23.9014 710.389C36.2327 719.545 51.164 724.488 66.5005 724.491L134.611 724.491C139.285 724.491 143.768 722.627 147.073 719.308C150.379 715.989 152.235 711.487 152.235 706.794C152.235 702.1 150.379 697.598 147.073 694.279C143.768 690.96 139.285 689.096 134.611 689.096L66.5005 689.096C58.429 689.095 50.5866 686.402 44.2052 681.439C37.8239 676.476 33.2651 669.525 31.2454 661.677C39.614 655.676 46.4336 647.753 51.136 638.57C55.8385 629.386 58.288 619.207 58.2804 608.88C58.2821 604.188 56.4273 599.686 53.124 596.367C49.8208 593.047 45.3397 591.181 40.6663 591.179Z" fill="#E5E0D5"/>
<path fill-rule="evenodd" clip-rule="evenodd" d="M58.206 609.111C58.204 614.946 59.9257 620.652 63.153 625.505C66.3804 630.358 70.9685 634.14 76.3371 636.375C81.7058 638.609 87.6138 639.196 93.3139 638.058C99.014 636.921 104.25 634.111 108.36 629.985C112.47 625.86 115.269 620.603 116.404 614.88C117.538 609.157 116.957 603.224 114.733 597.832C112.51 592.441 108.744 587.833 103.911 584.59C99.0793 581.348 93.3983 579.617 87.5868 579.617C85.2723 579.617 82.9803 579.16 80.842 578.271C78.7037 577.381 76.7608 576.077 75.1242 574.434C73.4876 572.791 72.1894 570.84 71.3037 568.693C70.418 566.546 69.9621 564.244 69.9621 561.92C69.9621 559.596 70.418 557.295 71.3037 555.147C72.1894 553 73.4876 551.05 75.1242 549.406C76.7608 547.763 78.7037 546.459 80.842 545.57C82.9803 544.68 85.2723 544.223 87.5868 544.223C100.367 544.226 112.859 548.034 123.484 555.166C134.109 562.298 142.389 572.433 147.278 584.29C152.166 596.147 153.444 609.193 150.949 621.779C148.454 634.365 142.298 645.926 133.26 655C124.222 664.073 112.707 670.251 100.172 672.753C87.6376 675.256 74.6452 673.97 62.8382 669.058C51.0312 664.147 40.9396 655.83 33.8397 645.16C26.7397 634.489 22.9502 621.944 22.9502 609.111C22.9502 604.416 24.8074 599.914 28.1136 596.594C31.4197 593.274 35.9037 591.409 40.5793 591.409C45.2548 591.409 49.7389 593.274 53.045 596.594C56.3511 599.914 58.2084 604.416 58.2084 609.111L58.206 609.111Z" fill="#9C9EA8"/>
<path d="M176.623 183.125C170.813 183.123 165.135 181.392 160.306 178.15C155.477 174.908 151.713 170.301 149.491 164.911C147.269 159.522 146.688 153.592 147.823 147.871C148.957 142.15 151.755 136.896 155.863 132.772C159.971 128.647 165.205 125.839 170.902 124.701C176.6 123.564 182.505 124.148 187.872 126.381C193.239 128.613 197.826 132.393 201.053 137.243C204.281 142.093 206.004 147.795 206.004 153.628C206.004 158.323 207.861 162.826 211.167 166.146C214.474 169.465 218.958 171.331 223.633 171.331C228.309 171.331 232.793 169.465 236.099 166.146C239.405 162.826 241.262 158.323 241.262 153.628C241.265 140.791 237.476 128.241 230.375 117.566C223.274 106.891 213.18 98.57 201.37 93.6556C189.559 88.7413 176.562 87.4544 164.023 89.9574C151.484 92.4603 139.966 98.6409 130.925 107.717C121.884 116.794 115.727 128.359 113.232 140.949C110.737 153.54 112.017 166.59 116.908 178.45C121.8 190.311 130.085 200.449 140.714 207.581C151.344 214.713 163.841 218.52 176.626 218.52C178.94 218.52 181.232 218.063 183.37 217.173C185.509 216.284 187.452 214.98 189.088 213.337C190.725 211.693 192.023 209.742 192.909 207.595C193.794 205.447 194.25 203.146 194.25 200.822C194.25 198.498 193.794 196.197 192.909 194.05C192.023 191.903 190.725 189.951 189.088 188.308C187.452 186.665 185.509 185.362 183.37 184.472C181.232 183.583 178.94 183.125 176.626 183.125L176.623 183.125Z" fill="#E5E0D5"/>
<path fill-rule="evenodd" clip-rule="evenodd" d="M58.1621 608.86C58.163 612.357 57.1312 615.775 55.1972 618.683C53.2633 621.591 50.5141 623.857 47.2971 625.196C44.0801 626.535 40.5399 626.887 37.1244 626.205C33.7089 625.523 30.5714 623.84 28.1087 621.368C25.646 618.896 23.9686 615.745 23.2888 612.316C22.6091 608.886 22.9576 605.331 24.29 602.1C25.6224 598.87 27.8789 596.109 30.7743 594.166C33.6696 592.223 37.0738 591.186 40.5561 591.186C45.2246 591.186 49.7021 593.048 53.0037 596.362C56.3053 599.677 58.1608 604.172 58.1621 608.86Z" fill="black"/>
<path fill-rule="evenodd" clip-rule="evenodd" d="M152.227 706.821C152.228 710.318 151.196 713.736 149.262 716.644C147.328 719.552 144.579 721.819 141.362 723.157C138.145 724.496 134.605 724.847 131.189 724.165C127.774 723.484 124.636 721.8 122.174 719.328C119.711 716.856 118.033 713.706 117.354 710.277C116.674 706.848 117.023 703.292 118.355 700.061C119.687 696.831 121.944 694.07 124.839 692.127C127.735 690.184 131.139 689.147 134.621 689.147C139.29 689.147 143.767 691.009 147.069 694.323C150.37 697.638 152.226 702.133 152.227 706.821Z" fill="black"/>
<path fill-rule="evenodd" clip-rule="evenodd" d="M199.012 705.812C199.013 709.308 197.981 712.727 196.047 715.635C194.113 718.543 191.364 720.809 188.147 722.148C184.93 723.487 181.39 723.838 177.974 723.156C174.558 722.474 171.421 720.791 168.958 718.319C166.496 715.847 164.818 712.697 164.138 709.268C163.459 705.838 163.807 702.283 165.14 699.052C166.472 695.821 168.728 693.06 171.624 691.118C174.519 689.175 177.923 688.138 181.406 688.138C186.074 688.138 190.552 690 193.853 693.314C197.155 696.628 199.01 701.124 199.012 705.812Z" fill="#9C9EA8"/>
<path fill-rule="evenodd" clip-rule="evenodd" d="M25.2521 -36.3426C33.7372 -36.3408 42.139 -34.6605 49.9775 -31.3982C57.8161 -28.136 64.938 -23.3554 70.9366 -17.3293C76.9351 -11.3032 81.6927 -4.14957 84.9379 3.72292C88.1832 11.5954 89.8525 20.0323 89.8503 28.5525L89.8503 146.549C89.8503 163.752 83.0445 180.251 70.93 192.415C58.8155 204.58 42.3845 211.414 25.252 211.414C8.11954 211.414 -8.31122 204.58 -20.4257 192.415C-32.5403 180.251 -39.3461 163.752 -39.3461 146.549L-39.3461 108.792L-76.3446 108.792C-93.4814 108.788 -109.914 101.947 -122.029 89.7765C-134.143 77.6058 -140.947 61.1016 -140.943 43.8939L-140.943 -74.0989C-140.941 -77.9722 -141.699 -81.8082 -143.174 -85.3872C-144.649 -88.9661 -146.812 -92.218 -149.538 -94.9577C-152.265 -97.6974 -155.502 -99.8711 -159.066 -101.354C-162.629 -102.838 -166.448 -103.601 -170.305 -103.602L-224.333 -103.602C-228.19 -103.601 -232.009 -102.838 -235.573 -101.354C-239.136 -99.8712 -242.373 -97.6974 -245.1 -94.9577C-247.827 -92.218 -249.989 -88.9662 -251.464 -85.3872C-252.939 -81.8082 -253.697 -77.9722 -253.696 -74.0989C-253.68 -71.7657 -254.124 -69.4525 -255.002 -67.2923C-255.88 -65.132 -257.175 -63.1674 -258.813 -61.5119C-260.45 -59.8564 -262.398 -58.5424 -264.543 -57.6458C-266.689 -56.7492 -268.99 -56.2878 -271.313 -56.2878C-273.637 -56.2878 -275.938 -56.7492 -278.083 -57.6458C-280.228 -58.5424 -282.176 -59.8564 -283.813 -61.5119C-285.451 -63.1674 -286.746 -65.132 -287.624 -67.2923C-288.503 -69.4525 -288.947 -71.7657 -288.931 -74.0989C-288.934 -82.6196 -287.265 -91.0572 -284.02 -98.9301C-280.775 -106.803 -276.017 -113.957 -270.018 -119.984C-264.019 -126.01 -256.897 -130.791 -249.059 -134.054C-241.22 -137.316 -232.817 -138.996 -224.332 -138.997L-170.305 -138.997C-161.504 -139.007 -152.796 -137.206 -144.715 -133.706C-136.635 -130.206 -129.355 -125.08 -123.324 -118.644C-117.293 -125.079 -110.012 -130.206 -101.932 -133.706C-93.8519 -137.206 -85.143 -139.007 -76.3428 -138.997L-23.4893 -138.997C-18.8149 -138.997 -14.332 -137.133 -11.0267 -133.814C-7.72148 -130.495 -5.86479 -125.993 -5.86479 -121.3C-5.86479 -116.606 -7.72148 -112.104 -11.0267 -108.785C-14.332 -105.466 -18.8149 -103.602 -23.4893 -103.602L-76.3428 -103.602C-80.2001 -103.601 -84.0193 -102.837 -87.5825 -101.354C-91.1457 -99.8703 -94.3831 -97.6974 -97.1097 -94.9577C-99.8362 -92.218 -101.999 -88.9653 -103.473 -85.3863C-104.948 -81.8074 -105.706 -77.9721 -105.705 -74.0989L-105.705 43.8939C-105.706 51.715 -102.613 59.2163 -97.1071 64.7479C-91.6007 70.2795 -84.1317 73.3883 -76.3428 73.3905L-39.3469 73.3905L-39.3469 28.5541C-39.3492 20.0337 -37.6803 11.5964 -34.435 3.7237C-31.1899 -4.14901 -26.4319 -11.303 -20.4333 -17.3293C-14.4347 -23.3556 -7.31258 -28.1359 0.526164 -31.3982C8.36494 -34.6605 16.7667 -36.341 25.2521 -36.3426ZM-4.11145 146.549C-4.11145 154.368 -1.01776 161.868 4.48899 167.398C9.9957 172.927 17.4643 176.034 25.252 176.034C33.0397 176.034 40.5085 172.927 46.0153 167.398C51.522 161.868 54.6157 154.368 54.6157 146.549L54.6157 28.5525C54.6157 20.7326 51.522 13.2329 46.0153 7.70332C40.5086 2.1738 33.0397 -0.932084 25.2521 -0.932085C17.4643 -0.932085 9.99571 2.1738 4.48899 7.70332C-1.01775 13.2329 -4.11144 20.7326 -4.11144 28.5525L-4.11145 146.549Z" fill="#EDEDEF"/>
<path fill-rule="evenodd" clip-rule="evenodd" d="M-5.18513 336.224C-12.975 336.224 -20.4457 339.331 -25.9539 344.862C-31.4622 350.394 -34.5567 357.895 -34.5567 365.717C-34.5567 373.539 -31.4622 381.041 -25.9539 386.572C-20.4457 392.103 -12.975 395.211 -5.18513 395.211C-0.510786 395.211 3.97212 397.075 7.27738 400.394C10.5826 403.713 12.4395 408.215 12.4395 412.908C12.4395 417.602 10.5826 422.104 7.27738 425.423C3.97212 428.742 -0.510788 430.606 -5.18513 430.606C-22.2679 430.52 -38.6217 423.646 -50.6708 411.486C-62.7199 399.326 -69.4839 382.869 -69.4839 365.716C-69.4839 348.562 -62.7199 332.106 -50.6708 319.947C-38.6217 307.787 -22.2679 300.912 -5.18513 300.825C-0.510355 300.825 3.97302 302.69 7.27859 306.01C10.5841 309.329 12.4411 313.831 12.4411 318.525C12.4411 323.219 10.5841 327.721 7.27858 331.041C3.97302 334.36 -0.510357 336.224 -5.18513 336.224Z" fill="#9C9EA8"/>
<path fill-rule="evenodd" clip-rule="evenodd" d="M188.406 601.766C188.404 589.372 185.971 577.099 181.246 565.648C176.521 554.198 169.596 543.794 160.867 535.031C152.138 526.268 141.775 519.317 130.371 514.576C118.966 509.834 106.743 507.396 94.3998 507.398C89.7263 507.398 85.2443 505.533 81.9397 502.215C78.635 498.897 76.7783 494.396 76.7783 489.703C76.7783 485.01 78.635 480.509 81.9397 477.191C85.2443 473.873 89.7263 472.009 94.3998 472.009C128.676 472.004 161.551 485.671 185.791 510.005C210.032 534.338 223.653 567.345 223.658 601.764C223.658 606.458 221.801 610.96 218.495 614.279C215.19 617.598 210.707 619.463 206.032 619.463C201.357 619.463 196.874 617.598 193.568 614.279C190.263 610.96 188.406 606.458 188.406 601.764L188.406 601.766Z" fill="#EDEDEF"/>
<path fill-rule="evenodd" clip-rule="evenodd" d="M224.666 216.5C228.147 216.499 231.549 215.461 234.443 213.518C237.337 211.576 239.592 208.815 240.924 205.585C242.255 202.356 242.603 198.803 241.923 195.374C241.243 191.946 239.567 188.798 237.105 186.327C234.643 183.855 231.507 182.172 228.093 181.491C224.679 180.809 221.14 181.159 217.924 182.497C214.708 183.835 211.96 186.1 210.026 189.007C208.092 191.913 207.06 195.33 207.06 198.826C207.061 203.514 208.917 208.009 212.218 211.323C215.52 214.638 219.997 216.5 224.666 216.5Z" fill="black"/>
<path fill-rule="evenodd" clip-rule="evenodd" d="M224.666 263.46C228.147 263.459 231.549 262.422 234.443 260.479C237.337 258.537 239.592 255.776 240.924 252.547C242.255 249.317 242.603 245.764 241.923 242.336C241.243 238.908 239.567 235.758 237.105 233.287C234.643 230.816 231.507 229.133 228.093 228.451C224.679 227.77 221.14 228.121 217.924 229.458C214.708 230.796 211.96 233.061 210.026 235.968C208.092 238.874 207.06 242.291 207.06 245.786C207.061 250.474 208.917 254.969 212.218 258.284C215.52 261.598 219.997 263.46 224.666 263.46Z" fill="black"/>
<path fill-rule="evenodd" clip-rule="evenodd" d="M250.822 573.762C250.818 565.246 252.484 556.812 255.726 548.942C258.968 541.072 263.722 533.92 269.716 527.895C275.711 521.87 282.828 517.089 290.663 513.826C298.497 510.563 306.895 508.882 315.377 508.878L432.75 508.878C449.888 508.878 466.324 515.713 478.443 527.882C490.561 540.051 497.369 556.556 497.369 573.765C497.369 590.974 490.561 607.478 478.443 619.647C466.324 631.815 449.888 638.652 432.75 638.652L315.377 638.652C306.895 638.648 298.497 636.966 290.662 633.703C282.827 630.439 275.71 625.659 269.715 619.633C263.721 613.607 258.967 606.455 255.725 598.585C252.483 590.714 250.817 582.279 250.822 573.762ZM315.377 544.27C307.587 544.27 300.116 547.377 294.608 552.908C289.099 558.439 286.005 565.94 286.005 573.762C286.005 581.584 289.099 589.086 294.608 594.617C300.116 600.148 307.587 603.256 315.377 603.256L432.75 603.256C440.539 603.256 448.01 600.148 453.518 594.617C459.027 589.086 462.121 581.584 462.121 573.762C462.121 565.94 459.027 558.439 453.518 552.908C448.01 547.377 440.539 544.27 432.75 544.27L315.377 544.27Z" fill="#EDEDEF"/>
<path fill-rule="evenodd" clip-rule="evenodd" d="M496.302 428.587C496.297 423.896 494.437 419.398 491.131 416.084C487.824 412.77 483.342 410.91 478.67 410.913C474.814 410.917 470.995 410.158 467.432 408.679C463.868 407.201 460.629 405.032 457.9 402.296C455.172 399.561 453.006 396.312 451.527 392.736C450.048 389.16 449.286 385.327 449.282 381.455L449.282 263.629C449.29 255.81 452.39 248.314 457.901 242.79C463.413 237.266 470.883 234.167 478.67 234.174C483.338 234.174 487.815 232.312 491.116 228.998C494.417 225.683 496.271 221.188 496.271 216.5C496.271 211.813 494.417 207.317 491.116 204.003C487.815 200.688 483.338 198.827 478.67 198.827C469.866 198.814 461.153 200.611 453.067 204.107C444.981 207.603 437.692 212.723 431.651 219.154C425.609 212.723 418.322 207.603 410.235 204.107C402.149 200.611 393.436 198.814 384.632 198.826L330.562 198.826C322.08 198.819 313.679 200.489 305.839 203.741C297.999 206.994 290.874 211.765 284.871 217.782C278.868 223.8 274.104 230.946 270.851 238.812C267.598 246.678 265.92 255.111 265.913 263.629C265.913 268.324 267.77 272.828 271.077 276.148C274.384 279.468 278.869 281.334 283.545 281.334C288.221 281.334 292.706 279.468 296.012 276.148C299.319 272.828 301.177 268.324 301.177 263.629C301.184 255.81 304.284 248.314 309.795 242.79C315.306 237.266 322.776 234.167 330.563 234.174L384.633 234.174C392.42 234.167 399.89 237.266 405.402 242.79C410.913 248.314 414.013 255.81 414.021 263.629L414.021 381.455C414.036 398.657 420.855 415.149 432.979 427.303C445.103 439.456 461.539 446.275 478.67 446.261C483.342 446.265 487.824 444.405 491.131 441.091C494.437 437.777 496.297 433.278 496.302 428.587Z" fill="#EDEDEF"/>
<path fill-rule="evenodd" clip-rule="evenodd" d="M334.075 349.348C328.266 349.349 322.588 351.08 317.758 354.322C312.929 357.563 309.165 362.17 306.942 367.559C304.72 372.949 304.139 378.879 305.273 384.6C306.407 390.321 309.205 395.576 313.313 399.7C317.421 403.824 322.655 406.633 328.352 407.771C334.05 408.909 339.956 408.324 345.323 406.092C350.69 403.859 355.277 400.08 358.504 395.23C361.732 390.38 363.455 384.678 363.455 378.844C363.455 374.149 365.312 369.647 368.618 366.327C371.925 363.007 376.409 361.142 381.084 361.142C385.76 361.142 390.244 363.007 393.55 366.327C396.856 369.647 398.714 374.149 398.714 378.844C398.717 391.682 394.929 404.232 387.828 414.907C380.728 425.583 370.634 433.904 358.823 438.819C347.013 443.734 334.016 445.022 321.477 442.519C308.938 440.016 297.419 433.835 288.378 424.759C279.337 415.683 273.179 404.118 270.684 391.527C268.189 378.937 269.468 365.887 274.36 354.026C279.251 342.165 287.536 332.028 298.166 324.895C308.796 317.763 321.293 313.956 334.077 313.956C338.751 313.956 343.234 315.82 346.539 319.139C349.844 322.458 351.701 326.958 351.701 331.652C351.701 336.345 349.844 340.846 346.539 344.164C343.234 347.483 338.751 349.348 334.077 349.348L334.075 349.348Z" fill="#9C9EA8"/>
<path fill-rule="evenodd" clip-rule="evenodd" d="M429.345 591.188C422.854 591.237 416.479 592.924 410.806 596.093C405.134 599.263 400.345 603.814 396.882 609.327C393.419 614.84 391.392 621.139 390.987 627.645C390.582 634.151 391.813 640.654 394.566 646.558C397.318 652.461 401.505 657.575 406.74 661.429C411.976 665.283 418.092 667.753 424.527 668.613C430.962 669.473 437.509 668.694 443.566 666.349C449.622 664.004 454.995 660.167 459.189 655.192C462.219 651.617 466.54 649.397 471.2 649.021C475.86 648.645 480.479 650.142 484.039 653.185C487.599 656.228 489.81 660.566 490.185 665.246C490.56 669.925 489.068 674.563 486.037 678.138C479.035 686.357 470.339 692.954 460.551 697.471C450.764 701.988 440.116 704.319 429.344 704.303C388.335 704.303 354.948 671.145 354.948 630.068C354.948 588.991 388.335 555.842 429.344 555.842C431.666 555.826 433.967 556.271 436.116 557.152C438.266 558.033 440.22 559.333 441.867 560.975C443.514 562.618 444.822 564.572 445.714 566.724C446.606 568.876 447.065 571.183 447.065 573.515C447.065 575.846 446.606 578.154 445.714 580.306C444.822 582.458 443.514 584.412 441.867 586.054C440.22 587.697 438.266 588.996 436.116 589.877C433.967 590.758 431.666 591.204 429.344 591.188L429.345 591.188Z" fill="black"/>
<path fill-rule="evenodd" clip-rule="evenodd" d="M181.403 262.484C181.403 284.972 199.988 303.798 223.657 303.798C247.326 303.798 265.912 284.972 265.912 262.484C265.912 257.795 267.767 253.298 271.069 249.983C274.37 246.667 278.848 244.805 283.518 244.805C288.187 244.805 292.665 246.667 295.967 249.983C299.269 253.298 301.123 257.795 301.123 262.484C301.123 305.184 266.111 339.208 223.657 339.208C181.203 339.208 146.191 305.184 146.191 262.484C146.191 257.795 148.046 253.298 151.348 249.983C154.649 246.667 159.128 244.805 163.797 244.805C168.466 244.805 172.944 246.667 176.246 249.983C179.548 253.298 181.403 257.795 181.403 262.484L181.403 262.484Z" fill="white"/>
<path fill-rule="evenodd" clip-rule="evenodd" d="M398.778 379.112C398.793 400.706 407.35 421.408 422.566 436.666C437.782 451.924 458.412 460.487 479.916 460.472C497.044 460.472 513.471 467.305 525.583 479.467C537.695 491.629 544.499 508.124 544.499 525.323C544.499 542.522 537.695 559.017 525.583 571.178C513.471 583.34 497.044 590.173 479.916 590.173C475.244 590.173 470.764 588.31 467.461 584.993C464.158 581.676 462.302 577.178 462.302 572.487C462.302 567.796 464.158 563.297 467.461 559.981C470.764 556.664 475.244 554.8 479.916 554.8C483.784 554.82 487.618 554.073 491.197 552.601C494.777 551.129 498.031 548.961 500.774 546.222C503.516 543.483 505.692 540.226 507.177 536.639C508.662 533.053 509.427 529.207 509.427 525.323C509.427 521.439 508.662 517.593 507.177 514.006C505.692 510.42 503.516 507.164 500.774 504.424C498.031 501.685 494.777 499.517 491.197 498.044C487.618 496.572 483.784 495.825 479.916 495.846C415.623 495.846 363.5 443.583 363.5 379.112C363.532 374.436 365.404 369.961 368.709 366.665C372.013 363.37 376.482 361.52 381.139 361.52C385.796 361.52 390.265 363.37 393.57 366.665C396.874 369.961 398.746 374.436 398.778 379.112Z" fill="white"/>
<path d="M250.82 569.977C250.814 534.348 236.714 500.18 211.621 474.99C186.527 449.801 152.497 435.652 117.015 435.656C112.347 435.656 107.87 433.794 104.569 430.479C101.268 427.165 99.4136 422.67 99.4136 417.983C99.4136 413.295 101.268 408.8 104.569 405.485C107.87 402.171 112.347 400.308 117.015 400.308C210.36 400.308 286.033 476.271 286.033 569.975C286.033 574.664 284.178 579.161 280.876 582.477C277.574 585.792 273.096 587.654 268.427 587.654C263.758 587.654 259.279 585.792 255.978 582.477C252.676 579.161 250.821 574.664 250.821 569.975L250.82 569.977Z" fill="#E5E0D5"/>
<path fill-rule="evenodd" clip-rule="evenodd" d="M465.614 79.6563C454.98 79.6546 444.45 81.7563 434.625 85.8411C424.799 89.9259 415.872 95.9142 408.352 103.464C400.831 111.013 394.865 119.975 390.794 129.84C386.723 139.704 384.627 150.278 384.626 160.956C384.626 165.645 382.771 170.141 379.469 173.457C376.167 176.772 371.689 178.634 367.02 178.634C362.351 178.634 357.872 176.772 354.57 173.457C351.269 170.141 349.414 165.645 349.414 160.956C349.416 145.635 352.423 130.465 358.264 116.311C364.105 102.158 372.665 89.2986 383.455 78.4669C394.245 67.6352 407.054 59.0434 421.151 53.1825C435.248 47.3216 450.356 44.3066 465.614 44.3089C467.935 44.293 470.237 44.7379 472.386 45.6189C474.535 46.5 476.49 47.7992 478.137 49.4419C479.784 51.0846 481.091 53.039 481.983 55.1911C482.875 57.3432 483.334 59.6507 483.334 61.9818C483.334 64.3129 482.875 66.6211 481.983 68.7733C481.091 70.9254 479.784 72.879 478.137 74.5217C476.49 76.1644 474.535 77.4636 472.386 78.3446C470.237 79.2257 467.935 79.6713 465.614 79.6555L465.614 79.6563Z" fill="black"/>
<path fill-rule="evenodd" clip-rule="evenodd" d="M344.832 668.924C344.834 683.278 350.515 697.044 360.625 707.192C370.735 717.34 384.445 723.04 398.74 723.038C401.058 723.023 403.356 723.467 405.502 724.347C407.648 725.227 409.599 726.524 411.243 728.164C412.888 729.804 414.193 731.754 415.084 733.903C415.974 736.052 416.433 738.356 416.433 740.683C416.433 743.011 415.974 745.315 415.084 747.464C414.193 749.612 412.888 751.563 411.243 753.203C409.599 754.843 407.648 756.14 405.502 757.02C403.356 757.899 401.058 758.344 398.74 758.328C387.046 758.33 375.466 756.02 364.662 751.528C353.857 747.036 344.039 740.451 335.768 732.149C327.498 723.847 320.937 713.991 316.46 703.143C311.983 692.295 309.678 680.667 309.676 668.924C309.676 664.243 311.528 659.753 314.824 656.443C318.121 653.133 322.592 651.274 327.254 651.274C331.916 651.274 336.387 653.133 339.683 656.443C342.98 659.753 344.832 664.243 344.832 668.924Z" fill="white"/>
<path fill-rule="evenodd" clip-rule="evenodd" d="M381.106 360.921C384.587 360.922 387.989 361.959 390.883 363.901C393.777 365.844 396.032 368.605 397.364 371.834C398.695 375.064 399.043 378.617 398.363 382.045C397.684 385.473 396.007 388.622 393.545 391.093C391.083 393.565 387.947 395.247 384.533 395.929C381.119 396.611 377.58 396.26 374.364 394.922C371.149 393.584 368.4 391.319 366.466 388.413C364.532 385.506 363.5 382.09 363.5 378.594C363.501 373.907 365.357 369.411 368.658 366.097C371.96 362.783 376.437 360.921 381.106 360.921Z" fill="black"/>
<path fill-rule="evenodd" clip-rule="evenodd" d="M236.738 361.426C240.219 361.427 243.621 362.464 246.515 364.406C249.409 366.349 251.664 369.11 252.995 372.339C254.327 375.569 254.675 379.122 253.995 382.55C253.315 385.978 251.639 389.127 249.177 391.599C246.715 394.07 243.579 395.753 240.165 396.434C236.751 397.116 233.212 396.765 229.996 395.427C226.78 394.089 224.031 391.824 222.098 388.918C220.164 386.012 219.132 382.595 219.132 379.099C219.133 374.412 220.989 369.916 224.29 366.602C227.592 363.288 232.069 361.426 236.738 361.426Z" fill="black"/>
<path fill-rule="evenodd" clip-rule="evenodd" d="M189.451 361.426C192.932 361.427 196.335 362.464 199.229 364.406C202.123 366.349 204.378 369.11 205.709 372.339C207.041 375.569 207.388 379.122 206.709 382.55C206.029 385.978 204.352 389.127 201.891 391.599C199.429 394.07 196.293 395.753 192.879 396.434C189.464 397.116 185.926 396.765 182.71 395.427C179.494 394.089 176.745 391.824 174.812 388.918C172.878 386.012 171.846 382.595 171.846 379.099C171.847 374.412 173.702 369.916 177.004 366.602C180.306 363.288 184.783 361.426 189.451 361.426Z" fill="black"/>
<path fill-rule="evenodd" clip-rule="evenodd" d="M-4.71963 395.256C-1.23868 395.257 2.16384 396.295 5.05768 398.238C7.95152 400.18 10.2068 402.941 11.5382 406.17C12.8696 409.4 13.2175 412.953 12.5378 416.381C11.8581 419.809 10.1814 422.959 7.71966 425.43C5.25791 427.901 2.12163 429.583 -1.29251 430.265C-4.70665 430.946 -8.24536 430.596 -11.4613 429.258C-14.6771 427.921 -17.4258 425.655 -19.3596 422.749C-21.2935 419.843 -22.3257 416.426 -22.3257 412.931C-22.3244 408.243 -20.4689 403.748 -17.1673 400.433C-13.8657 397.119 -9.38818 395.256 -4.71963 395.256Z" fill="black"/>
<path fill-rule="evenodd" clip-rule="evenodd" d="M283.519 244.778C287 244.779 290.402 245.816 293.296 247.759C296.19 249.702 298.445 252.462 299.776 255.692C301.108 258.921 301.456 262.475 300.776 265.903C300.096 269.331 298.42 272.48 295.958 274.951C293.496 277.422 290.36 279.105 286.946 279.787C283.532 280.468 279.993 280.118 276.777 278.78C273.561 277.442 270.813 275.177 268.879 272.27C266.945 269.364 265.913 265.947 265.913 262.452C265.914 257.764 267.769 253.269 271.071 249.955C274.373 246.64 278.85 244.778 283.519 244.778Z" fill="black"/>
<path fill-rule="evenodd" clip-rule="evenodd" d="M9.87113 739.644C6.39017 739.645 2.98765 740.683 0.0938115 742.626C-2.80003 744.568 -5.05529 747.329 -6.38672 750.559C-7.71815 753.788 -8.06598 757.341 -7.38628 760.769C-6.70659 764.197 -5.02992 767.346 -2.56817 769.817C-0.106421 772.288 3.02986 773.971 6.444 774.653C9.85814 775.334 13.3968 774.984 16.6127 773.647C19.8286 772.309 22.5773 770.044 24.5111 767.137C26.4449 764.231 27.477 760.813 27.477 757.318C27.4757 752.63 25.6202 748.135 22.3186 744.821C19.017 741.506 14.5397 739.644 9.87113 739.644Z" fill="#9C9EA8"/>
<path fill-rule="evenodd" clip-rule="evenodd" d="M381.106 313.959C384.587 313.96 387.989 314.998 390.883 316.94C393.777 318.883 396.032 321.644 397.364 324.873C398.695 328.103 399.043 331.656 398.363 335.084C397.684 338.512 396.007 341.66 393.545 344.132C391.083 346.603 387.947 348.286 384.533 348.967C381.119 349.649 377.58 349.299 374.364 347.961C371.149 346.623 368.4 344.358 366.466 341.452C364.532 338.545 363.5 335.128 363.5 331.633C363.501 326.945 365.357 322.45 368.658 319.135C371.96 315.821 376.437 313.959 381.106 313.959Z" fill="#9C9EA8"/>
<path fill-rule="evenodd" clip-rule="evenodd" d="M381.106 266.996C384.587 266.997 387.989 268.034 390.883 269.977C393.777 271.919 396.032 274.68 397.364 277.91C398.695 281.139 399.043 284.693 398.363 288.121C397.684 291.549 396.007 294.698 393.545 297.169C391.083 299.64 387.947 301.323 384.533 302.005C381.119 302.686 377.58 302.335 374.364 300.998C371.149 299.66 368.4 297.395 366.466 294.488C364.532 291.582 363.5 288.165 363.5 284.67C363.501 279.982 365.357 275.487 368.658 272.172C371.96 268.858 376.437 266.996 381.106 266.996Z" fill="#9C9EA8"/>
<path fill-rule="evenodd" clip-rule="evenodd" d="M268.427 555.837C271.908 555.838 275.31 556.876 278.204 558.818C281.098 560.761 283.353 563.522 284.684 566.751C286.016 569.981 286.364 573.534 285.684 576.962C285.004 580.39 283.328 583.538 280.866 586.01C278.404 588.481 275.268 590.164 271.854 590.845C268.44 591.527 264.901 591.177 261.685 589.839C258.469 588.501 255.721 586.236 253.787 583.33C251.853 580.423 250.821 577.006 250.821 573.511C250.822 568.823 252.678 564.327 255.979 561.013C259.281 557.699 263.758 555.837 268.427 555.837Z" fill="black"/>
<path fill-rule="evenodd" clip-rule="evenodd" d="M-215.489 357.83C-215.425 367.508 -211.55 376.768 -204.712 383.588C-197.874 390.409 -188.627 394.237 -178.988 394.237C-169.35 394.237 -160.103 390.409 -153.264 383.588C-146.426 376.768 -142.552 367.508 -142.488 357.83C-142.488 285.249 -83.6281 226.597 -11.2589 226.597C-6.58279 226.597 -2.09824 228.463 1.20823 231.783C4.51472 235.103 6.37238 239.607 6.37238 244.302C6.37238 248.997 4.51472 253.5 1.20823 256.82C-2.09824 260.14 -6.58279 262.006 -11.2589 262.006C-64.392 262.006 -107.276 305.014 -107.276 357.83C-107.276 397.57 -139.488 429.596 -178.987 429.596C-218.486 429.596 -250.701 397.57 -250.701 357.83C-250.701 355.508 -250.245 353.209 -249.36 351.064C-248.476 348.919 -247.179 346.971 -245.544 345.329C-243.909 343.688 -241.968 342.385 -239.832 341.497C-237.696 340.608 -235.407 340.151 -233.095 340.151C-230.783 340.151 -228.493 340.608 -226.357 341.497C-224.221 342.385 -222.28 343.688 -220.646 345.329C-219.011 346.971 -217.714 348.919 -216.829 351.064C-215.944 353.209 -215.489 355.508 -215.489 357.83Z" fill="white"/>
<path fill-rule="evenodd" clip-rule="evenodd" d="M-11.2163 262.456C42.2314 262.456 85.2478 305.354 85.2478 357.892C85.2478 362.592 87.1069 367.099 90.4163 370.423C93.7257 373.746 98.2142 375.612 102.894 375.612C107.575 375.612 112.063 373.746 115.372 370.423C118.682 367.099 120.541 362.592 120.541 357.892C120.541 285.49 61.3794 227.108 -11.2147 227.108C-13.5362 227.092 -15.8377 227.537 -17.987 228.418C-20.1362 229.3 -22.0907 230.599 -23.7378 232.241C-25.3849 233.884 -26.6921 235.838 -27.5842 237.99C-28.4762 240.142 -28.9355 242.45 -28.9355 244.781C-28.9355 247.112 -28.4762 249.421 -27.5842 251.573C-26.6921 253.725 -25.3849 255.679 -23.7378 257.321C-22.0907 258.964 -20.1362 260.263 -17.987 261.144C-15.8377 262.025 -13.5362 262.471 -11.2147 262.455L-11.2163 262.456Z" fill="black"/>
<path fill-rule="evenodd" clip-rule="evenodd" d="M6.35301 244.779C6.35398 248.275 5.32214 251.694 3.38817 254.602C1.4542 257.51 -1.2952 259.776 -4.51217 261.115C-7.72915 262.454 -11.2691 262.806 -14.6847 262.124C-18.1002 261.442 -21.2379 259.759 -23.7006 257.287C-26.1633 254.814 -27.8405 251.664 -28.5203 248.235C-29.2 244.805 -28.8515 241.25 -27.5191 238.019C-26.1867 234.788 -23.9302 232.027 -21.0348 230.085C-18.1394 228.142 -14.7353 227.105 -11.253 227.105C-6.58444 227.105 -2.10697 228.967 1.19464 232.281C4.49624 235.595 6.35172 240.091 6.35301 244.779Z" fill="#9C9EA8"/>
<path fill-rule="evenodd" clip-rule="evenodd" d="M294.083 146.813C294.081 131.957 291.165 117.247 285.501 103.523C279.837 89.7981 271.537 77.3279 261.074 66.8246C250.611 56.3212 238.19 47.9898 224.52 42.3067C210.85 36.6235 196.2 33.7002 181.405 33.7024C176.737 33.7024 172.26 31.84 168.959 28.5255C165.658 25.211 163.804 20.7154 163.804 16.028C163.804 11.3405 165.658 6.84572 168.959 3.53122C172.26 0.216721 176.737 -1.64571 181.405 -1.64571C263.083 -1.6457 329.296 64.8189 329.296 146.812C329.296 151.501 327.441 155.999 324.139 159.314C320.837 162.629 316.359 164.492 311.69 164.492C307.021 164.492 302.543 162.629 299.241 159.314C295.939 155.999 294.084 151.501 294.084 146.812L294.083 146.813Z" fill="#EDEDEF"/>
<path fill-rule="evenodd" clip-rule="evenodd" d="M193.854 3.53094C196.316 6.00336 197.993 9.15343 198.672 12.5828C199.351 16.0121 199.003 19.5672 197.67 22.7976C196.338 26.028 194.081 28.7887 191.186 30.7312C188.29 32.6738 184.886 33.7109 181.404 33.7109C177.922 33.7109 174.518 32.6738 171.623 30.7312C168.728 28.7887 166.471 26.028 165.139 22.7976C163.806 19.5672 163.457 16.0121 164.137 12.5828C164.816 9.15343 166.493 6.00336 168.955 3.53094C170.589 1.88834 172.53 0.585049 174.666 -0.304004C176.802 -1.19306 179.092 -1.64999 181.404 -1.64999C183.717 -1.64999 186.006 -1.19306 188.143 -0.304004C190.279 0.58505 192.219 1.88834 193.854 3.53094Z" fill="#9C9EA8"/>
<path fill-rule="evenodd" clip-rule="evenodd" d="M259.933 -164.724C259.933 -79.988 328.36 -11.3041 412.768 -11.3041C417.444 -11.3041 421.929 -9.43854 425.235 -6.11837C428.542 -2.79819 430.399 1.70452 430.399 6.39996C430.399 11.0954 428.542 15.5989 425.235 18.9191C421.929 22.2393 417.444 24.104 412.768 24.104C308.881 24.104 224.665 -60.4309 224.665 -164.724C224.665 -169.421 226.523 -173.924 229.83 -177.245C233.137 -180.566 237.622 -182.432 242.299 -182.432C246.976 -182.432 251.461 -180.566 254.768 -177.245C258.076 -173.924 259.933 -169.421 259.933 -164.724L259.933 -164.724Z" fill="white"/>
</g>
<path fill-rule="evenodd" clip-rule="evenodd" d="M28 80C37.8656 79.9114 45.8358 71.8865 45.8358 62C45.8358 52.1135 37.8656 44.0886 28 44V80Z" fill="#FDFDFD"/>
</g>
<defs>
<clipPath id="clip0">
<rect width="375" height="812" fill="white"/>
</clipPath>
</defs>
</svg>
