<svg width="30" height="31" viewBox="0 0 30 31" fill="none" xmlns="http://www.w3.org/2000/svg">
<g opacity="0.7" filter="url(#filter0_d)">
<path d="M7.99984 6.41384L4.75684 3.17184L6.17184 1.75684L9.41384 4.99984H24.6558C24.8117 4.99983 24.9654 5.03625 25.1047 5.1062C25.244 5.17616 25.365 5.2777 25.4581 5.40273C25.5511 5.52776 25.6137 5.67282 25.6407 5.82632C25.6678 5.97983 25.6586 6.13753 25.6138 6.28684L23.2138 14.2868C23.1521 14.4929 23.0255 14.6736 22.853 14.802C22.6804 14.9305 22.471 14.9999 22.2558 14.9998H9.99984V16.9998H20.9998V18.9998H8.99984C8.73462 18.9998 8.48027 18.8945 8.29273 18.7069C8.10519 18.5194 7.99984 18.2651 7.99984 17.9998V6.41384ZM9.99984 6.99984V12.9998H21.5118L23.3118 6.99984H9.99984ZM9.49984 22.9998C9.10201 22.9998 8.72048 22.8418 8.43918 22.5605C8.15787 22.2792 7.99984 21.8977 7.99984 21.4998C7.99984 21.102 8.15787 20.7205 8.43918 20.4392C8.72048 20.1579 9.10201 19.9998 9.49984 19.9998C9.89766 19.9998 10.2792 20.1579 10.5605 20.4392C10.8418 20.7205 10.9998 21.102 10.9998 21.4998C10.9998 21.8977 10.8418 22.2792 10.5605 22.5605C10.2792 22.8418 9.89766 22.9998 9.49984 22.9998ZM21.4998 22.9998C21.102 22.9998 20.7205 22.8418 20.4392 22.5605C20.1579 22.2792 19.9998 21.8977 19.9998 21.4998C19.9998 21.102 20.1579 20.7205 20.4392 20.4392C20.7205 20.1579 21.102 19.9998 21.4998 19.9998C21.8977 19.9998 22.2792 20.1579 22.5605 20.4392C22.8418 20.7205 22.9998 21.102 22.9998 21.4998C22.9998 21.8977 22.8418 22.2792 22.5605 22.5605C22.2792 22.8418 21.8977 22.9998 21.4998 22.9998Z" fill="red"/>
</g>
<defs>
<filter id="filter0_d" x="0" y="0" width="32" height="32" filterUnits="userSpaceOnUse" color-interpolation-filters="sRGB">
<feFlood flood-opacity="0" result="BackgroundImageFix"/>
<feColorMatrix in="SourceAlpha" type="matrix" values="0 0 0 0 0 0 0 0 0 0 0 0 0 0 0 0 0 0 127 0"/>
<feOffset dy="4"/>
<feGaussianBlur stdDeviation="2"/>
<feColorMatrix type="matrix" values="0 0 0 0 0 0 0 0 0 0 0 0 0 0 0 0 0 0 0.25 0"/>
<feBlend mode="normal" in2="BackgroundImageFix" result="effect1_dropShadow"/>
<feBlend mode="normal" in="SourceGraphic" in2="effect1_dropShadow" result="shape"/>
</filter>
</defs>
</svg>
